<svg xmlns="http://www.w3.org/2000/svg" xmlns:xlink="http://www.w3.org/1999/xlink" width="500" zoomAndPan="magnify" viewBox="0 0 375 374.999991" height="500" preserveAspectRatio="xMidYMid meet" version="1.0"><defs><clipPath id="befd8a4bc5"><path d="M 17.464844 113.488281 L 357.757812 113.488281 L 357.757812 260.679688 L 17.464844 260.679688 Z M 17.464844 113.488281 " clip-rule="nonzero"/></clipPath><clipPath id="bace2316e2"><path d="M 17.464844 204 L 357.757812 204 L 357.757812 261.203125 L 17.464844 261.203125 Z M 17.464844 204 " clip-rule="nonzero"/></clipPath><clipPath id="d7dfae2493"><path d="M 18.160156 113.488281 L 357.757812 113.488281 L 357.757812 227.355469 L 18.160156 227.355469 Z M 18.160156 113.488281 " clip-rule="nonzero"/></clipPath></defs><g clip-path="url(#befd8a4bc5)"><path fill="#a0f2ff" d="M 239.324219 146.972656 C 239.324219 146.972656 239.28125 136.199219 235.144531 128.496094 C 228.144531 115.460938 204.421875 109.359375 189.734375 117.171875 C 181.128906 121.75 175.394531 130.28125 175.394531 130.28125 C 175.394531 130.28125 153.941406 109.785156 125.304688 121.464844 C 103.101562 130.523438 104.890625 158.894531 104.890625 158.894531 C 104.890625 158.894531 88.761719 153.332031 80 165.648438 C 70.695312 178.726562 75.617188 192.269531 75.617188 192.269531 C 75.617188 192.269531 66.457031 186.707031 55.300781 192.269531 C 46.503906 196.65625 43.949219 206.574219 43.949219 206.574219 C 43.949219 206.574219 31.335938 205.324219 23.039062 209.554688 C 15.886719 213.195312 16.898438 220.652344 19.054688 224.851562 C 21.597656 229.804688 34.988281 232.800781 34.988281 232.800781 C 34.988281 232.800781 37.554688 242.699219 45.148438 244.71875 C 54.109375 247.105469 61.277344 239.953125 61.277344 239.953125 C 61.277344 239.953125 66.902344 251.480469 78.007812 253.066406 C 91.949219 255.050781 101.308594 239.355469 101.308594 239.355469 C 101.308594 239.355469 108.683594 254.183594 129.789062 255.449219 C 149.703125 256.640625 158.667969 239.953125 158.667969 239.953125 C 158.667969 239.953125 164.046875 258.230469 186.382812 260.304688 C 205.695312 262.097656 217.816406 246.507812 217.816406 246.507812 C 217.816406 246.507812 221.214844 252.613281 228.574219 256.042969 C 246.894531 264.585938 257.652344 248.691406 257.652344 248.691406 C 257.652344 248.691406 277.566406 267.371094 302.0625 257.832031 C 314.804688 252.871094 321.777344 236.972656 321.777344 236.972656 C 321.777344 236.972656 328.269531 241.433594 335.523438 242.335938 C 345.085938 243.53125 354.839844 239.953125 357.03125 230.414062 C 362.292969 207.5 335.320312 211.34375 335.320312 211.34375 C 335.320312 211.34375 339.785156 199.21875 331.9375 194.652344 C 318.992188 187.128906 306.242188 197.832031 306.242188 197.832031 C 306.242188 197.832031 307.835938 184.324219 296.085938 179.160156 C 284.339844 173.992188 265.019531 180.347656 265.019531 180.347656 C 265.019531 180.347656 270.875 167.058594 267.410156 159.488281 C 260.039062 143.394531 239.324219 146.972656 239.324219 146.972656 " fill-opacity="1" fill-rule="nonzero"/></g><g clip-path="url(#bace2316e2)"><path fill="#05aecb" d="M 319.460938 224.714844 C 319.460938 224.714844 317.679688 232.960938 312.292969 237.035156 C 307.625 240.558594 299.820312 239.820312 294.765625 237.035156 C 289.515625 234.132812 286.003906 229.882812 286.003906 229.882812 C 286.003906 229.882812 278.539062 236.234375 271.664062 236.238281 C 267.613281 236.238281 263.792969 233.761719 261.703125 231.074219 C 258.382812 226.792969 258.121094 221.933594 258.121094 221.933594 C 258.121094 221.933594 247.851562 234.355469 235.019531 236.238281 C 234.046875 236.378906 227.117188 237.300781 221.078125 233.457031 C 214.828125 229.480469 211.625 217.886719 211.625 217.886719 C 211.625 217.886719 202.671875 229.226562 182.90625 228.0625 C 168.234375 227.199219 148.183594 216.132812 166.070312 206.355469 C 171.328125 203.480469 151.738281 204.085938 151.738281 204.085938 C 151.738281 204.085938 135.835938 205.625 140.699219 207.402344 C 149.609375 210.652344 143.207031 222.925781 134.640625 226.703125 C 118.101562 233.992188 93.835938 228.0625 100.996094 218.347656 C 103.328125 215.179688 92.417969 219.550781 92.417969 219.550781 C 92.417969 219.550781 86.96875 222.070312 89.875 222.472656 C 97.558594 223.539062 95.785156 236.449219 87.242188 240.210938 C 85.394531 241.023438 76.6875 244.007812 70.113281 239.8125 C 64.539062 236.253906 60.949219 229.882812 60.949219 229.882812 C 60.949219 229.882812 59.304688 233.417969 56.171875 235.445312 C 52.714844 237.671875 46.882812 237.199219 44.222656 234.25 C 41.40625 231.128906 41.035156 225.507812 41.035156 225.507812 C 41.035156 225.507812 37.714844 227.042969 34.265625 227.894531 C 28.960938 229.203125 23.988281 227.3125 22.777344 226.519531 C 20.648438 225.125 17.867188 222.527344 17.464844 218.394531 C 17.464844 222.628906 18.269531 223.832031 19.128906 225.507812 C 21.671875 230.460938 35.058594 233.457031 35.058594 233.457031 C 35.058594 233.457031 37.625 243.355469 45.21875 245.375 C 54.179688 247.761719 61.351562 240.609375 61.351562 240.609375 C 61.351562 240.609375 66.976562 252.136719 78.078125 253.722656 C 92.023438 255.707031 101.382812 240.011719 101.382812 240.011719 C 101.382812 240.011719 108.753906 254.839844 129.863281 256.105469 C 149.777344 257.296875 158.742188 240.609375 158.742188 240.609375 C 158.742188 240.609375 164.117188 258.886719 186.457031 260.960938 C 205.769531 262.753906 217.890625 247.167969 217.890625 247.167969 C 217.890625 247.167969 221.289062 253.269531 228.644531 256.703125 C 246.96875 265.246094 257.722656 249.351562 257.722656 249.351562 C 257.722656 249.351562 277.640625 268.027344 302.136719 258.488281 C 314.878906 253.527344 321.851562 237.628906 321.851562 237.628906 C 321.851562 237.628906 328.339844 242.089844 335.59375 242.992188 C 345.160156 244.1875 354.527344 241.109375 356.71875 231.574219 C 356.785156 231.273438 357.210938 229.554688 357.273438 229.265625 C 343.8125 250.566406 319.460938 224.714844 319.460938 224.714844 " fill-opacity="1" fill-rule="nonzero"/></g><g clip-path="url(#d7dfae2493)"><path fill="#a0f2ff" d="M 29.148438 210.105469 C 38.082031 210.972656 47.011719 217.082031 47.011719 217.082031 C 47.011719 217.082031 50.011719 204.421875 56.96875 199.601562 C 65.382812 193.769531 82.0625 198.410156 82.0625 198.410156 C 82.0625 198.410156 76.632812 183.675781 80.074219 177.746094 C 84.453125 170.199219 95.207031 174.964844 95.207031 174.964844 C 95.207031 174.964844 96.3125 170.414062 100.785156 167.8125 C 112.808594 160.820312 124.226562 174.566406 124.226562 174.566406 C 124.226562 174.566406 117.863281 160.796875 120.714844 153.808594 C 124.453125 144.640625 130.433594 140.605469 140.039062 138.914062 C 169.902344 133.65625 186.574219 159.964844 187.410156 158.628906 C 188.039062 157.628906 180.171875 147.359375 182.441406 141.191406 C 189.011719 123.308594 214.910156 135.347656 222.671875 143.574219 C 224.371094 145.375 230.171875 151.523438 229.441406 159.070312 C 228.691406 166.863281 222.316406 173.074219 220.949219 174.324219 C 222.613281 172.878906 231.75 165.683594 242.1875 171.789062 C 253.523438 178.414062 249.359375 192.050781 249.359375 192.050781 C 249.359375 192.050781 259.800781 187.519531 268.476562 185.691406 C 273.132812 184.714844 287.136719 181.769531 293.175781 188.078125 C 298.917969 194.082031 297.953125 206.753906 297.953125 206.753906 C 297.953125 206.753906 322.25 193.640625 329.421875 205.164062 C 332.046875 209.378906 330.21875 218.671875 330.21875 218.671875 C 330.21875 218.671875 341.980469 213.558594 349.960938 217.773438 C 353.921875 219.863281 356.109375 222.371094 357.605469 227.1875 C 359.886719 207.652344 335.394531 211.125 335.394531 211.125 C 335.394531 211.125 339.859375 199 332.007812 194.4375 C 319.0625 186.90625 306.316406 197.613281 306.316406 197.613281 C 306.316406 197.613281 307.910156 184.101562 296.160156 178.9375 C 284.410156 173.773438 265.09375 180.128906 265.09375 180.128906 C 265.09375 180.128906 270.949219 166.84375 267.480469 159.269531 C 260.113281 143.175781 239.398438 146.753906 239.398438 146.753906 C 239.398438 146.753906 239.355469 135.984375 235.21875 128.277344 C 228.21875 115.242188 204.5 109.140625 189.808594 116.953125 C 181.199219 121.53125 175.46875 130.066406 175.46875 130.066406 C 175.46875 130.066406 154.015625 109.566406 125.378906 121.246094 C 103.175781 130.300781 104.964844 158.675781 104.964844 158.675781 C 104.964844 158.675781 88.835938 153.109375 80.074219 165.429688 C 70.769531 178.503906 75.691406 192.050781 75.691406 192.050781 C 75.691406 192.050781 66.527344 186.488281 55.375 192.050781 C 46.578125 196.441406 44.023438 206.355469 44.023438 206.355469 C 44.023438 206.355469 31.410156 205.109375 23.109375 209.335938 C 21.132812 210.34375 19.546875 212.140625 18.671875 213.578125 C 21.417969 210.695312 25.445312 209.742188 29.148438 210.105469 " fill-opacity="1" fill-rule="nonzero"/></g><path fill="#05aecb" d="M 181.46875 189.816406 C 181.183594 190.101562 180.648438 190.546875 180.074219 191.03125 C 179.496094 191.527344 178.707031 192.085938 177.792969 192.742188 C 176.863281 193.386719 175.796875 194.058594 174.621094 194.738281 C 172.070312 196.222656 169.125 197.578125 166.117188 198.664062 C 164.347656 199.292969 162.695312 199.789062 161.066406 200.191406 C 159.265625 200.636719 157.472656 200.96875 155.730469 201.183594 C 154.101562 201.402344 152.335938 201.519531 150.355469 201.539062 C 148.375 201.539062 146.667969 201.441406 145.074219 201.234375 C 144.777344 201.210938 144.503906 201.167969 144.234375 201.128906 L 143.675781 201.046875 C 143.367188 201.003906 143.058594 200.960938 142.664062 200.875 L 140.992188 200.554688 C 140.765625 200.507812 140.53125 200.457031 140.289062 200.394531 C 138.910156 200.066406 137.519531 199.628906 136.148438 199.101562 C 135.019531 198.667969 133.898438 198.167969 132.726562 197.578125 C 131.789062 197.101562 130.882812 196.609375 130.128906 196.171875 L 122.992188 191.785156 L 126.015625 196.585938 L 126.480469 197.3125 C 126.726562 197.675781 127.097656 198.226562 127.613281 198.847656 C 128.34375 199.746094 129.042969 200.503906 129.816406 201.234375 C 130.855469 202.21875 132.003906 203.128906 133.230469 203.949219 C 134.699219 204.917969 136.292969 205.757812 137.964844 206.449219 C 138.269531 206.570312 138.578125 206.683594 138.890625 206.796875 L 140.699219 207.402344 C 141.082031 207.53125 141.542969 207.648438 142.007812 207.765625 L 142.527344 207.898438 C 142.945312 208.003906 143.367188 208.105469 143.742188 208.175781 C 145.84375 208.625 148.015625 208.890625 150.183594 208.960938 C 150.671875 208.980469 151.164062 208.992188 151.667969 208.992188 C 153.332031 208.992188 155.082031 208.878906 156.898438 208.652344 C 159.1875 208.347656 161.371094 207.878906 163.382812 207.265625 C 165.457031 206.640625 167.433594 205.875 169.261719 204.996094 C 172.675781 203.363281 175.785156 201.289062 178.25 198.996094 C 180.894531 196.566406 182.339844 194.351562 182.933594 193.292969 C 183.164062 192.925781 183.367188 192.546875 183.515625 192.210938 C 183.675781 191.882812 183.804688 191.605469 183.894531 191.375 L 186.21875 185.425781 L 181.46875 189.816406 " fill-opacity="1" fill-rule="nonzero"/><path fill="#05aecb" d="M 238.449219 210.507812 C 238.449219 210.507812 238.601562 210.613281 238.882812 210.816406 C 239.15625 211.023438 239.574219 211.304688 240.09375 211.664062 C 240.613281 212.015625 241.238281 212.441406 241.96875 212.886719 C 242.6875 213.34375 243.519531 213.816406 244.414062 214.308594 C 245.316406 214.785156 246.292969 215.269531 247.34375 215.714844 C 247.875 215.921875 248.394531 216.175781 248.964844 216.351562 C 249.242188 216.449219 249.519531 216.550781 249.796875 216.65625 C 250.085938 216.742188 250.371094 216.832031 250.664062 216.921875 C 251.820312 217.285156 253.035156 217.535156 254.265625 217.765625 C 254.878906 217.878906 255.515625 217.910156 256.140625 218.019531 C 256.800781 218.054688 257.464844 218.09375 258.132812 218.128906 C 258.519531 218.171875 258.765625 218.136719 259.074219 218.132812 L 259.957031 218.117188 C 260.246094 218.125 260.558594 218.089844 260.871094 218.058594 C 261.183594 218.035156 261.496094 218.007812 261.808594 217.980469 C 263.050781 217.835938 264.277344 217.632812 265.457031 217.347656 C 267.820312 216.789062 270.019531 215.972656 271.898438 215.148438 C 273.78125 214.320312 275.34375 213.488281 276.445312 212.875 C 277.550781 212.265625 278.1875 211.871094 278.1875 211.871094 C 278.1875 211.871094 277.898438 212.5625 277.1875 213.660156 C 276.828125 214.207031 276.359375 214.847656 275.769531 215.546875 C 275.179688 216.246094 274.460938 216.992188 273.613281 217.753906 C 272.761719 218.503906 271.78125 219.265625 270.664062 219.976562 C 269.546875 220.679688 268.304688 221.339844 266.941406 221.882812 C 266.253906 222.136719 265.566406 222.441406 264.824219 222.613281 C 264.089844 222.796875 263.355469 223.050781 262.578125 223.140625 C 262.195312 223.203125 261.808594 223.261719 261.417969 223.320312 C 259.898438 223.796875 257.535156 225.363281 260.933594 229.988281 L 258.316406 228.398438 C 257.914062 228.402344 257.5 232.742188 257.171875 232.703125 C 256.414062 232.644531 257.777344 226.640625 257.023438 226.582031 C 256.246094 226.449219 248.644531 231.117188 247.890625 230.9375 C 254.023438 226.644531 250.664062 222.320312 249.347656 221.675781 C 249.019531 221.515625 248.261719 221.023438 247.9375 220.867188 C 247.621094 220.691406 247.3125 220.507812 247.015625 220.328125 C 246.40625 219.980469 245.84375 219.585938 245.308594 219.199219 C 244.765625 218.8125 244.28125 218.390625 243.800781 217.996094 C 243.347656 217.570312 242.90625 217.175781 242.511719 216.761719 C 241.726562 215.929688 241.0625 215.136719 240.535156 214.382812 C 240 213.636719 239.59375 212.953125 239.285156 212.378906 C 238.972656 211.804688 238.78125 211.324219 238.636719 211.007812 C 238.503906 210.683594 238.449219 210.507812 238.449219 210.507812 " fill-opacity="1" fill-rule="nonzero"/><path fill="#05aecb" d="M 77.539062 217.589844 C 77.539062 217.589844 78.109375 217.746094 79.105469 218.011719 C 80.097656 218.273438 81.496094 218.640625 83.160156 218.925781 C 84.816406 219.210938 86.734375 219.429688 88.734375 219.335938 C 88.980469 219.316406 89.230469 219.300781 89.484375 219.28125 C 89.726562 219.25 89.96875 219.21875 90.214844 219.1875 C 90.492188 219.148438 90.769531 219.113281 91.050781 219.078125 L 91.472656 219.023438 L 91.824219 218.933594 C 92.300781 218.800781 92.765625 218.734375 93.257812 218.570312 C 93.746094 218.394531 94.253906 218.269531 94.734375 218.0625 C 95.210938 217.847656 95.707031 217.675781 96.171875 217.4375 C 96.625 217.171875 97.109375 216.964844 97.550781 216.691406 C 97.988281 216.402344 98.441406 216.152344 98.871094 215.855469 C 99.285156 215.546875 99.714844 215.269531 100.113281 214.953125 C 100.914062 214.328125 101.671875 213.683594 102.371094 213.035156 C 103.070312 212.386719 103.710938 211.738281 104.304688 211.128906 C 104.878906 210.503906 105.425781 209.933594 105.882812 209.40625 C 106.339844 208.871094 106.761719 208.414062 107.085938 208.019531 C 107.421875 207.625 107.683594 207.316406 107.859375 207.109375 C 108.046875 206.894531 108.144531 206.785156 108.144531 206.785156 C 108.144531 206.785156 108.109375 206.929688 108.039062 207.199219 C 107.96875 207.46875 107.871094 207.871094 107.695312 208.359375 C 107.53125 208.855469 107.320312 209.449219 107.027344 210.117188 C 106.742188 210.789062 106.386719 211.53125 105.949219 212.324219 C 105.714844 212.714844 105.472656 213.117188 105.21875 213.535156 C 104.953125 213.949219 104.648438 214.355469 104.351562 214.785156 C 103.71875 215.621094 103 216.472656 102.171875 217.289062 C 101.339844 218.097656 100.402344 218.875 99.371094 219.566406 C 98.855469 219.914062 98.300781 220.21875 97.753906 220.53125 C 97.195312 220.828125 96.597656 221.0625 96.019531 221.324219 C 95.425781 221.5625 94.800781 221.722656 94.195312 221.917969 C 93.589844 222.109375 92.898438 222.175781 92.261719 222.300781 L 91.777344 222.378906 L 91.351562 222.40625 C 91.066406 222.421875 90.785156 222.429688 90.503906 222.445312 L 90.085938 222.464844 L 89.875 222.472656 L 89.679688 222.480469 L 89.570312 222.476562 C 89.265625 222.460938 88.96875 222.449219 88.675781 222.429688 C 86.308594 222.261719 84.214844 221.601562 82.550781 220.859375 C 80.886719 220.101562 79.632812 219.261719 78.800781 218.636719 C 77.960938 218.003906 77.539062 217.589844 77.539062 217.589844 " fill-opacity="1" fill-rule="nonzero"/></svg>